<svg version="1.1" xmlns="http://www.w3.org/2000/svg" xmlns:xlink="http://www.w3.org/1999/xlink" x="0px" y="0px" width="540px"
	 height="540px" viewBox="0 0 540 540" enable-background="new 0 0 540 540" xml:space="preserve">
<circle id="badge-outline" fill="#FFFFFF" cx="270" cy="270" r="270"/>
<circle id="badge" fill="#00324B" cx="270" cy="270" r="260"/>

<path id="ying" fill="#FFFFFF" d="M190.99,415.028c-14.121-7.679-27.163-17.476-38.711-29.214C121.791,354.828,105,313.697,105,270
	c0-43.689,16.808-84.818,47.328-115.812c30.552-31.026,71.505-48.483,115.315-49.154l0.119-0.003
	c0.707-0.019,1.507-0.031,2.219-0.031l0.979,0.004c42.622,0.168,77.297,34.933,77.297,77.496c0,42.563-34.676,77.328-77.297,77.495
	L261,260.429c-49.736,4.645-88.792,46.407-88.792,97.071C172.208,378.433,178.799,398.422,190.99,415.028z"/>
<path id="zero" fill="#F7391A" d="M280.422,154.897c3.961,0,7.201,3.24,7.201,7.2v41.62c0,4.032-3.097,7.2-7.201,7.2h-21.17
	c-4.104,0-7.2-3.168-7.2-7.2v-41.62c0-3.96,3.24-7.2,7.2-7.2H280.422z M280.422,203.717v-41.62h-21.17v41.62H280.422z"/>

<path id="yang" fill="#F7391A" d="M269.04,434.995c-42.622-0.169-77.297-34.934-77.297-77.495c0-42.563,34.675-77.328,77.297-77.496
	l9.96-0.433c49.741-4.64,88.795-46.404,88.795-97.071c0-20.933-6.592-40.922-18.782-57.528c14.12,7.679,27.161,17.476,38.71,29.214
	C418.21,185.172,435,226.303,435,270c0,43.689-16.808,84.818-47.327,115.812c-30.552,31.025-71.505,48.482-115.316,49.154
	l-0.125,0.003c-0.678,0.019-1.44,0.03-2.13,0.031L269.04,434.995z"/>

<path id="eiffel" fill-rule="evenodd" clip-rule="evenodd" fill="#FFFFFF" d="M285.686,385.666l10.626,22.418h-6.977
	c-3.129-9.154-6.464-17.972-15.822-18.147h-0.245v-4.271H285.686L285.686,385.666z M273.268,384.684v-5.019h12.227v5.019H273.268
	L273.268,384.684z M273.268,366.527v-2.44h5.926l3.875,14.595h-5.134l-2.163-12.154H273.268L273.268,366.527z M273.268,363.104
	v-3.264h6.338v3.264H273.268L273.268,363.104z M273.268,358.857v-34.25c0.106,4.976,0.25,9.941,0.468,14.82
	c0.298,6.698,0.733,13.24,1.396,19.43H273.268L273.268,358.857z M273.268,318.202h0.799c0.114,7.069,0.274,14.198,0.586,21.179
	c0.298,6.704,0.735,13.261,1.404,19.477h1.945c-1.073-6.863-1.85-14.147-2.19-21.854l-1.138-18.806h0.679v-2.717h-2.085V318.202
	L273.268,318.202z M273.268,314.499v-2.426h1.231c0.273,0.08,0.479,0.396,0.479,0.771v0.331c0,0.478-0.281,0.763-0.305,1.323
	H273.268L273.268,314.499z M273.268,311.092v-7.059h0.217c0,2.035,0.104,4.838,0.133,7.059H273.268z M273.268,389.937h-0.245
	c-9.359,0.176-12.693,8.993-15.822,18.147h-6.977l10.626-22.418h12.417V389.937L273.268,389.937z M273.268,304.033v7.059h-0.35
	c0.028-2.221,0.133-5.023,0.133-7.059H273.268L273.268,304.033z M273.268,312.073v2.426h-1.405
	c-0.023-0.561-0.304-0.846-0.304-1.323v-0.331c0-0.375,0.205-0.691,0.478-0.771H273.268L273.268,312.073z M273.268,315.481v2.721
	h-0.798c-0.115,7.069-0.275,14.198-0.586,21.179c-0.298,6.704-0.735,13.261-1.406,19.477h-1.935
	c1.073-6.863,1.85-14.147,2.191-21.854l1.137-18.802h-0.026v-0.004h-0.662v-2.717H273.268L273.268,315.481z M273.268,324.607
	L273.268,324.607c-0.106,4.975-0.249,9.941-0.467,14.82c-0.298,6.698-0.733,13.24-1.396,19.43h1.863V324.607L273.268,324.607z
	 M273.268,359.84v3.264h-6.328v-3.264H273.268L273.268,359.84z M273.268,364.087v2.44h-2.495l-2.162,12.154h-5.133l3.875-14.595
	H273.268L273.268,364.087z M273.268,379.665v5.019h-12.216v-5.019H273.268z"/>

<g id="banner-text" fill="#00AFF1">
	<path id="line-left" d="M112.044,415.417c-0.819,0-1.635-0.333-2.227-0.988C74.146,374.951,54.5,323.659,54.5,270
		c0-1.657,1.343-3,3-3s3,1.343,3,3c0,52.17,19.096,102.034,53.769,140.405c1.111,1.229,1.015,3.127-0.215,4.237
		C113.48,415.161,112.761,415.417,112.044,415.417z"/>

	<path id="line-right" d="M426.629,416.596c-0.725,0-1.451-0.261-2.027-0.789c-1.221-1.12-1.303-3.018-0.183-4.239
		C459.938,372.846,479.5,322.569,479.5,270c0-1.657,1.343-3,3-3s3,1.343,3,3c0,54.075-20.122,105.792-56.659,145.624
		C428.249,416.269,427.44,416.596,426.629,416.596z"/>

	<g id="paris">
		<path d="M152.797,422.902c0.34-0.508,1.054-0.693,1.613-0.318l11.596,7.764c6.255,4.189,7.986,12.715,3.865,18.869
			c-4.223,6.307-12.799,8.004-19.004,3.848l-7.374-4.938l-8.003,11.951c-0.341,0.508-1.105,0.66-1.614,0.318l-3.306-2.213
			c-0.56-0.375-0.66-1.105-0.319-1.613L152.797,422.902z M154.052,447.979c3.509,2.35,8.163,1.342,10.615-2.32
			c2.316-3.459,1.34-7.941-2.169-10.293l-7.222-4.836l-8.446,12.613L154.052,447.979z"/>
		<path d="M186.692,487.877l29.38-34.436c0.277-0.303,0.891-0.445,1.185-0.361l0.588,0.168
			c0.294,0.084,0.74,0.529,0.815,0.934l6.629,44.727c0.134,0.865-0.555,1.496-1.438,1.244l-3.707-1.061
			c-0.706-0.201-1.017-0.672-1.101-1.27l-1.344-9.102l-19.24-5.5l-5.893,7.035c-0.294,0.361-0.899,0.697-1.605,0.496l-3.707-1.059
			C186.372,489.441,186.12,488.541,186.692,487.877z M216.91,483.021l-2.63-18.191l-0.294-0.084l-11.786,14.07L216.91,483.021z"/>
		<path d="M266.153,462.74c-0.033-0.611,0.426-1.188,1.098-1.225l16.623-0.9c7.333-0.396,13.637,5.084,14.031,12.357
			c0.304,5.621-3.172,10.469-8.373,12.895l9.214,15.068c0.471,0.771,0.096,1.773-0.943,1.83l-4.583,0.248
			c-0.673,0.035-1.056-0.25-1.326-0.725l-8.87-15.518l-9.229,0.5l0.845,15.584c0.033,0.611-0.487,1.191-1.099,1.225l-3.972,0.215
			c-0.672,0.035-1.191-0.488-1.224-1.1L266.153,462.74z M284.511,481.42c3.973-0.215,7.273-3.766,7.045-7.982
			c-0.215-3.971-3.877-7.082-7.85-6.867l-10.878,0.59l0.805,14.85L284.511,481.42z"/>
		<path d="M330.08,452.699c-0.2-0.578,0.14-1.277,0.718-1.479l3.815-1.326c0.578-0.201,1.279,0.139,1.48,0.717
			l13.293,38.273c0.201,0.578-0.139,1.279-0.717,1.48l-3.816,1.326c-0.578,0.201-1.279-0.139-1.479-0.717L330.08,452.699z"/>
		<path d="M387.029,465.857l-0.096-2.969c-0.043-0.934,0.578-1.652,1.444-1.576
			c3.721,0.355,6.575,0.635,10.472-2.016c3.491-2.375,4.271-6.016,2.516-8.596c-2.065-3.037-6.005-3.168-12.425-1.836
			c-6.642,1.336-12.514,1.408-16.507-4.461c-2.686-3.947-3.333-11.426,4.713-16.9c5.06-3.441,10.645-3.393,11.392-3.383
			c0.576-0.021,1.463,0.41,1.474,1.514l0.043,2.783c0.043,0.934-0.408,1.686-1.427,1.711c-2.834,0.078-5.617,0.121-8.552,2.117
			c-4.25,2.893-3.894,6.572-2.619,8.443c1.962,2.885,5.393,3.141,10.763,2.004c7.487-1.615,14.391-2.24,18.59,3.934
			c3.58,5.262,1.801,12.764-4.777,17.24c-6.173,4.199-12.272,3.611-13.598,3.402C387.703,467.176,387.058,467.096,387.029,465.857z"
			/>
	</g>

	<g id="coderdojo">
		<path d="M43.564,208.584c1.521-5.992,4.638-9.811,9.162-12.956c0.61-0.414,1.322-0.233,1.676,0.362l2.007,3.288
			c0.429,0.551,0.293,1.085-0.376,1.483c-3.14,2.17-5.646,5.576-6.581,9.254c-2.153,8.484,3.339,16.698,11.645,18.807
			s17.007-2.566,19.161-11.049c1.099-4.331,0.147-7.793-1.325-11.198c-0.28-0.639-0.085-1.158,0.302-1.439l3.362-2.051
			c0.536-0.369,1.277-0.055,1.587,0.466c2.891,5.028,3.435,10.597,2.095,15.877c-3.012,11.865-14.87,19.022-26.735,16.01
			C47.679,232.426,40.552,220.449,43.564,208.584z"/>
		<path d="M75.39,139.062c6.842-10.15,20.486-12.762,30.637-5.92c10.15,6.842,12.746,20.402,5.904,30.552
			c-6.842,10.15-20.351,12.78-30.501,5.938C71.279,162.79,68.548,149.213,75.39,139.062z M107.008,160.375
			c4.892-7.257,2.855-17.266-4.402-22.158c-7.207-4.858-17.4-3.094-22.292,4.164c-4.858,7.207-2.669,17.318,4.538,22.176
			C92.108,169.449,102.15,167.582,107.008,160.375z"/>
		<path d="M119.957,91.244c-0.358-0.496-0.285-1.229,0.211-1.587l11.406-8.248c9.571-6.921,23.037-4.8,29.921,4.721
			c6.956,9.621,4.75,23.072-4.82,29.993l-11.406,8.247c-0.496,0.359-1.215,0.199-1.574-0.297L119.957,91.244z M152.723,111.806
			c7.29-5.271,8.575-14.356,3.268-21.696c-5.271-7.29-14.266-8.867-21.555-3.596l-6.695,4.841l18.288,25.292L152.723,111.806z"/>
		<path d="M188.318,51.656c-0.185-0.583,0.117-1.256,0.758-1.458l23.34-7.373c0.642-0.203,1.274,0.175,1.459,0.758
			l1.032,3.268c0.184,0.583-0.117,1.256-0.759,1.458l-18.438,5.825l3.761,11.903l15.579-4.922c0.583-0.184,1.274,0.175,1.459,0.759
			l1.032,3.268c0.203,0.642-0.175,1.274-0.759,1.458l-15.579,4.921l3.963,12.545l18.438-5.825c0.642-0.203,1.274,0.175,1.459,0.758
			l1.014,3.209c0.185,0.583-0.116,1.256-0.758,1.459l-23.34,7.373c-0.642,0.203-1.274-0.175-1.459-0.759L188.318,51.656z"/>
		<path d="M255.985,37.014c0.01-0.612,0.508-1.155,1.181-1.144l16.643,0.27c7.343,0.119,13.245,6.029,13.127,13.311
			c-0.092,5.629-3.899,10.219-9.257,12.274l8.13,15.677c0.416,0.803-0.028,1.774-1.068,1.758l-4.589-0.074
			c-0.674-0.011-1.035-0.323-1.272-0.816l-7.757-16.1l-9.239-0.15l-0.253,15.603c-0.01,0.612-0.569,1.154-1.181,1.144l-3.978-0.064
			c-0.673-0.011-1.153-0.569-1.144-1.181L255.985,37.014z M272.982,56.936c3.978,0.064,7.52-3.244,7.589-7.466
			c0.064-3.977-3.37-7.338-7.347-7.402l-10.892-0.176l-0.241,14.869L272.982,56.936z"/>
		<path d="M329.493,44.277c0.199-0.579,0.841-0.941,1.42-0.742l13.312,4.569c11.17,3.834,17.195,16.06,13.381,27.172
			c-3.854,11.228-16.118,17.176-27.288,13.341l-13.312-4.569c-0.579-0.199-0.863-0.878-0.664-1.458L329.493,44.277z M331.568,82.901
			c8.508,2.92,16.673-1.264,19.612-9.83c2.921-8.508-0.973-16.767-9.48-19.688l-7.813-2.682l-10.132,29.517L331.568,82.901z"/>
		<path d="M418.224,88.231c9.482,7.742,10.835,21.569,3.093,31.051s-21.482,10.826-30.965,3.083
			c-9.481-7.742-10.864-21.435-3.122-30.917S408.742,80.489,418.224,88.231z M394.106,117.767c6.78,5.536,16.934,4.423,22.469-2.356
			c5.497-6.732,4.673-17.045-2.106-22.581c-6.731-5.497-17.002-4.242-22.498,2.49C386.435,102.099,387.375,112.27,394.106,117.767z"
			/>
		<path d="M427.371,151.665l3.204,0.533c1.084,0.313,1.182,0.909,0.972,1.705c-0.366,1.338-0.757,3.644,0.552,5.64
			c1.646,2.508,4.824,4.229,9.327,1.275l24.72-16.214c0.512-0.335,1.24-0.229,1.609,0.334l2.216,3.378
			c0.369,0.563,0.178,1.274-0.334,1.61l-24.668,16.18c-7.114,4.666-13.65,2.513-17.578-3.476c-2.921-4.452-1.87-8.654-1.366-10.229
			C426.266,151.877,426.812,151.592,427.371,151.665z"/>
		<path d="M496.323,208.307c3.21,11.811-3.729,23.843-15.539,27.054s-23.768-3.686-26.979-15.496
			c-3.21-11.81,3.627-23.751,15.438-26.962C481.053,189.692,493.112,196.497,496.323,208.307z M459.534,218.308
			c2.295,8.444,11.2,13.443,19.645,11.148c8.386-2.279,13.712-11.147,11.416-19.591c-2.279-8.385-11.361-13.336-19.747-11.057
			C462.403,201.104,457.255,209.922,459.534,218.308z"/>
	</g>
</g>
</svg>
